<svg version="1.1" id="Layer_1" xmlns="http://www.w3.org/2000/svg" xmlns:xlink="http://www.w3.org/1999/xlink" x="0px" y="0px"
	 width="100%" viewBox="0 0 672 1024" enable-background="new 0 0 672 1024" xml:space="preserve">
<path fill="#1B2A45" opacity="1.000000" stroke="none" 
	d="
M485.505493,475.618835 
	C506.812561,529.019287 528.021057,582.041443 549.160461,635.091125 
	C556.433350,653.342468 563.732361,671.587585 570.667847,689.968201 
	C581.784363,719.429871 565.374023,750.472839 535.404175,755.712952 
	C516.309692,759.051514 500.404816,751.685608 487.638214,737.530090 
	C481.903809,731.171875 477.952118,723.614014 474.735992,715.681946 
	C470.606934,705.498291 466.781403,695.169800 462.160828,685.211853 
	C453.561768,666.679626 439.041870,654.129639 420.464874,646.186157 
	C415.125763,643.903137 409.557068,641.892822 403.894653,640.710754 
	C399.040771,639.697571 397.945679,637.407593 397.954407,632.824097 
	C398.053711,580.664062 397.913971,528.503479 397.969299,476.343231 
	C397.979492,466.735901 396.626923,457.429718 393.515076,448.370880 
	C389.787903,437.520813 384.223633,427.692352 376.363098,419.325775 
	C354.232300,395.770081 325.301270,399.043915 305.755554,422.543213 
	C292.732788,438.200134 286.584869,456.777344 286.494873,477.050140 
	C286.349915,509.706329 286.818848,542.364685 286.853271,575.022400 
	C286.873474,594.178406 286.342712,613.336914 286.523468,632.489868 
	C286.574432,637.892944 284.807526,640.071350 279.624390,641.253174 
	C259.612030,645.816040 242.948395,655.994568 230.494568,672.476379 
	C222.757950,682.715332 219.123550,695.023193 214.198746,706.651428 
	C208.809692,719.375854 204.192062,732.402649 193.610046,742.211243 
	C172.209808,762.047607 139.812485,761.270081 121.866119,739.705933 
	C110.316002,725.827393 107.728996,709.660706 113.777138,692.732056 
	C119.935829,675.494019 126.914589,658.545044 133.695679,641.533936 
	C153.983856,590.638916 174.395309,539.792908 194.674957,488.894501 
	C215.383423,436.919861 235.959961,384.892609 256.660339,332.914734 
	C265.891693,309.735107 280.511505,291.151215 302.746246,278.983154 
	C334.644562,261.526642 373.965057,268.823730 399.791931,290.842224 
	C414.519684,303.398285 423.816772,319.526855 430.779510,337.321716 
	C445.521484,374.998138 460.482208,412.588989 475.367340,450.209351 
	C478.674805,458.568573 482.040771,466.904633 485.505493,475.618835 
z"/>
</svg>
