<svg version="1.1" id="Layer_1" xmlns="http://www.w3.org/2000/svg" xmlns:xlink="http://www.w3.org/1999/xlink" x="0px" y="0px"
	 width="100%" viewBox="0 0 832 1248" enable-background="new 0 0 832 1248" xml:space="preserve">
<path fill="#FFFFFF" opacity="1.000000" stroke="none" 
	d="
M504.000000,1249.000000 
	C336.000000,1249.000000 168.500000,1249.000000 1.000000,1249.000000 
	C1.000000,833.000000 1.000000,417.000000 1.000000,1.000000 
	C278.333344,1.000000 555.666687,1.000000 833.000000,1.000000 
	C833.000000,417.000000 833.000000,833.000000 833.000000,1249.000000 
	C723.500000,1249.000000 614.000000,1249.000000 504.000000,1249.000000 
M312.500000,952.941162 
	C401.831512,952.939636 491.163116,952.987610 580.494507,952.900085 
	C601.463684,952.879517 622.531433,952.911438 643.056885,947.920776 
	C693.339355,935.694946 727.266724,904.999023 744.862061,856.349243 
	C752.104675,836.324097 753.788391,815.376770 753.814697,794.347534 
	C753.972412,668.017334 754.015198,541.686707 753.793884,415.356781 
	C753.768616,400.920166 752.972351,386.303894 750.628052,372.085114 
	C742.457825,322.532196 716.023804,286.036285 670.240601,264.506622 
	C645.310974,252.783371 618.470032,250.117828 591.330811,250.092834 
	C482.666901,249.992706 374.002777,250.007843 265.338745,250.037827 
	C242.369232,250.044159 219.346176,249.545670 196.648148,254.086868 
	C155.093674,262.400696 122.874191,284.251007 101.071831,320.792694 
	C85.613922,346.700836 80.061310,375.256866 80.045280,405.021027 
	C79.975906,533.850952 79.956955,662.681152 80.202034,791.510681 
	C80.227592,804.947327 81.177773,818.531738 83.305336,831.789795 
	C94.107651,899.104980 147.359497,948.314941 219.051254,951.643982 
	C249.821243,953.072876 280.681030,952.568054 312.500000,952.941162 
z"/>
<path fill="#0C1B2F" opacity="1.000000" stroke="none" 
	d="
M312.000000,952.941467 
	C280.681030,952.568054 249.821243,953.072876 219.051254,951.643982 
	C147.359497,948.314941 94.107651,899.104980 83.305336,831.789795 
	C81.177773,818.531738 80.227592,804.947327 80.202034,791.510681 
	C79.956955,662.681152 79.975906,533.850952 80.045280,405.021027 
	C80.061310,375.256866 85.613922,346.700836 101.071831,320.792694 
	C122.874191,284.251007 155.093674,262.400696 196.648148,254.086868 
	C219.346176,249.545670 242.369232,250.044159 265.338745,250.037827 
	C374.002777,250.007843 482.666901,249.992706 591.330811,250.092834 
	C618.470032,250.117828 645.310974,252.783371 670.240601,264.506622 
	C716.023804,286.036285 742.457825,322.532196 750.628052,372.085114 
	C752.972351,386.303894 753.768616,400.920166 753.793884,415.356781 
	C754.015198,541.686707 753.972412,668.017334 753.814697,794.347534 
	C753.788391,815.376770 752.104675,836.324097 744.862061,856.349243 
	C727.266724,904.999023 693.339355,935.694946 643.056885,947.920776 
	C622.531433,952.911438 601.463684,952.879517 580.494507,952.900085 
	C491.163116,952.987610 401.831512,952.939636 312.000000,952.941467 
M427.575287,390.867371 
	C425.598816,390.609253 423.627594,390.179871 421.645050,390.118622 
	C388.562286,389.096436 360.447113,407.606964 348.310211,438.474091 
	C337.308899,466.453156 326.500763,494.508301 315.445435,522.465881 
	C294.482574,575.478455 273.380157,628.435913 252.383423,681.435120 
	C242.530579,706.305298 232.508179,731.114075 223.098602,756.152100 
	C217.213593,771.811646 218.276993,787.158752 229.775238,800.200073 
	C248.293640,821.203613 278.001862,816.680725 293.729034,795.636169 
	C300.850159,786.107361 304.686615,774.142822 310.161346,763.358459 
	C314.360626,755.086548 317.902374,746.283936 323.311157,738.865295 
	C333.610291,724.739197 348.438446,716.829773 365.191681,712.591736 
	C368.562317,711.739014 369.534454,710.441284 369.526367,706.933899 
	C369.421967,661.610046 369.308899,616.284180 369.651947,570.962280 
	C369.786530,553.181274 375.416565,537.021606 386.675964,522.934814 
	C403.548279,501.825653 430.966400,501.890045 447.801483,523.089783 
	C459.366425,537.653076 464.497894,554.312195 464.541779,572.680420 
	C464.644165,615.506287 464.656525,658.332336 464.704407,701.158325 
	C464.708282,704.612549 464.704956,708.066833 464.704956,711.427429 
	C466.309753,711.817444 467.266937,712.042297 468.219971,712.283630 
	C469.345154,712.568604 470.474701,712.840515 471.588654,713.165039 
	C494.937042,719.966431 512.477783,733.444885 521.659973,756.600830 
	C525.031799,765.104065 528.429688,773.601074 532.038147,782.005371 
	C536.310364,791.955444 542.294434,800.507263 551.663269,806.543335 
	C574.127380,821.016235 602.031982,812.834778 611.999451,788.461609 
	C617.191772,775.764954 614.710205,763.353821 609.855530,751.097046 
	C590.459412,702.126282 571.077881,653.149597 551.798096,604.133057 
	C530.631958,550.320801 509.757050,496.393341 488.412079,442.652344 
	C477.496490,415.169891 458.140991,396.920197 427.575287,390.867371 
z"/>
<path fill="#FEFEFE" opacity="1.000000" stroke="none" 
	d="
M428.008698,390.907471 
	C458.140991,396.920197 477.496490,415.169891 488.412079,442.652344 
	C509.757050,496.393341 530.631958,550.320801 551.798096,604.133057 
	C571.077881,653.149597 590.459412,702.126282 609.855530,751.097046 
	C614.710205,763.353821 617.191772,775.764954 611.999451,788.461609 
	C602.031982,812.834778 574.127380,821.016235 551.663269,806.543335 
	C542.294434,800.507263 536.310364,791.955444 532.038147,782.005371 
	C528.429688,773.601074 525.031799,765.104065 521.659973,756.600830 
	C512.477783,733.444885 494.937042,719.966431 471.588654,713.165039 
	C470.474701,712.840515 469.345154,712.568604 468.219971,712.283630 
	C467.266937,712.042297 466.309753,711.817444 464.704956,711.427429 
	C464.704956,708.066833 464.708282,704.612549 464.704407,701.158325 
	C464.656525,658.332336 464.644165,615.506287 464.541779,572.680420 
	C464.497894,554.312195 459.366425,537.653076 447.801483,523.089783 
	C430.966400,501.890045 403.548279,501.825653 386.675964,522.934814 
	C375.416565,537.021606 369.786530,553.181274 369.651947,570.962280 
	C369.308899,616.284180 369.421967,661.610046 369.526367,706.933899 
	C369.534454,710.441284 368.562317,711.739014 365.191681,712.591736 
	C348.438446,716.829773 333.610291,724.739197 323.311157,738.865295 
	C317.902374,746.283936 314.360626,755.086548 310.161346,763.358459 
	C304.686615,774.142822 300.850159,786.107361 293.729034,795.636169 
	C278.001862,816.680725 248.293640,821.203613 229.775238,800.200073 
	C218.276993,787.158752 217.213593,771.811646 223.098602,756.152100 
	C232.508179,731.114075 242.530579,706.305298 252.383423,681.435120 
	C273.380157,628.435913 294.482574,575.478455 315.445435,522.465881 
	C326.500763,494.508301 337.308899,466.453156 348.310211,438.474091 
	C360.447113,407.606964 388.562286,389.096436 421.645050,390.118622 
	C423.627594,390.179871 425.598816,390.609253 428.008698,390.907471 
z"/>
</svg>