<svg version="1.1" id="Layer_1" xmlns="http://www.w3.org/2000/svg" xmlns:xlink="http://www.w3.org/1999/xlink" x="0px" y="0px"
	 width="100%" viewBox="0 0 666 164" enable-background="new 0 0 666 164" xml:space="preserve">
<path fill="#FDFEFE" opacity="1.000000" stroke="none" 
	d="
M483.000000,165.000000 
	C322.000031,165.000000 161.500046,165.000000 1.000043,165.000000 
	C1.000029,110.333359 1.000029,55.666718 1.000014,1.000058 
	C222.999939,1.000039 444.999878,1.000039 666.999878,1.000019 
	C666.999878,55.666607 666.999878,110.333214 666.999939,164.999908 
	C605.833313,165.000000 544.666687,165.000000 483.000000,165.000000 
M537.044983,91.736145 
	C536.877563,92.235542 536.710205,92.734940 536.105042,93.805550 
	C535.062500,95.592995 534.019958,97.380432 532.750916,98.463623 
	C526.998535,84.773254 521.208740,71.098419 515.508484,57.386356 
	C512.378662,49.857418 512.446472,49.823196 504.212738,50.189056 
	C503.759033,50.209217 503.315521,50.460278 502.262543,50.797573 
	C502.262543,54.116558 502.262543,57.556885 502.070221,61.885506 
	C500.641052,80.477219 499.211884,99.068932 497.785309,117.626945 
	C501.723053,118.759315 501.297943,116.592392 501.327759,114.228554 
	C501.452240,104.360298 501.569519,94.482986 502.108063,84.631874 
	C502.511414,77.254448 503.554749,69.912018 504.878601,62.003944 
	C505.512634,62.734982 506.378967,63.365265 506.746185,64.212006 
	C513.346619,79.431404 519.847534,94.694160 526.513367,109.884621 
	C527.053223,111.114906 528.514343,112.340942 529.783936,112.678040 
	C530.395813,112.840523 531.898132,111.077866 532.405029,109.926277 
	C533.667358,107.058357 534.590149,104.040970 536.024719,100.566788 
	C536.666931,98.706055 537.309082,96.845314 538.374573,94.336189 
	C539.260803,91.890335 540.147034,89.444481 541.033325,86.998627 
	C540.572937,86.793045 540.112549,86.587471 539.652161,86.381897 
	C539.122314,87.312386 538.592468,88.242882 537.752869,89.609077 
	C537.638184,90.254211 537.523499,90.899345 537.044983,91.736145 
z"/>
<path fill="#1B2A45" opacity="1.000000" stroke="none" 
	d="
M485.505493,475.618835 
	C506.812561,529.019287 528.021057,582.041443 549.160461,635.091125 
	C556.433350,653.342468 563.732361,671.587585 570.667847,689.968201 
	C581.784363,719.429871 565.374023,750.472839 535.404175,755.712952 
	C516.309692,759.051514 500.404816,751.685608 487.638214,737.530090 
	C481.903809,731.171875 477.952118,723.614014 474.735992,715.681946 
	C470.606934,705.498291 466.781403,695.169800 462.160828,685.211853 
	C453.561768,666.679626 439.041870,654.129639 420.464874,646.186157 
	C415.125763,643.903137 409.557068,641.892822 403.894653,640.710754 
	C399.040771,639.697571 397.945679,637.407593 397.954407,632.824097 
	C398.053711,580.664062 397.913971,528.503479 397.969299,476.343231 
	C397.979492,466.735901 396.626923,457.429718 393.515076,448.370880 
	C389.787903,437.520813 384.223633,427.692352 376.363098,419.325775 
	C354.232300,395.770081 325.301270,399.043915 305.755554,422.543213 
	C292.732788,438.200134 286.584869,456.777344 286.494873,477.050140 
	C286.349915,509.706329 286.818848,542.364685 286.853271,575.022400 
	C286.873474,594.178406 286.342712,613.336914 286.523468,632.489868 
	C286.574432,637.892944 284.807526,640.071350 279.624390,641.253174 
	C259.612030,645.816040 242.948395,655.994568 230.494568,672.476379 
	C222.757950,682.715332 219.123550,695.023193 214.198746,706.651428 
	C208.809692,719.375854 204.192062,732.402649 193.610046,742.211243 
	C172.209808,762.047607 139.812485,761.270081 121.866119,739.705933 
	C110.316002,725.827393 107.728996,709.660706 113.777138,692.732056 
	C119.935829,675.494019 126.914589,658.545044 133.695679,641.533936 
	C153.983856,590.638916 174.395309,539.792908 194.674957,488.894501 
	C215.383423,436.919861 235.959961,384.892609 256.660339,332.914734 
	C265.891693,309.735107 280.511505,291.151215 302.746246,278.983154 
	C334.644562,261.526642 373.965057,268.823730 399.791931,290.842224 
	C414.519684,303.398285 423.816772,319.526855 430.779510,337.321716 
	C445.521484,374.998138 460.482208,412.588989 475.367340,450.209351 
	C478.674805,458.568573 482.040771,466.904633 485.505493,475.618835 
z"/>
</svg>
